  0
SECTION
  2
HEADER
  9
$ACADVER
  1
AC1014
  9
$HANDSEED
  5
FFFF
  9
$MEASUREMENT
 70
     1
  0
ENDSEC
  0
SECTION
  2
TABLES
  0
TABLE
  2
VPORT
  5
8
330
0
100
AcDbSymbolTable
 70
     4
  0
VPORT
  5
2E
330
8
100
AcDbSymbolTableRecord
100
AcDbViewportTableRecord
  2
*ACTIVE
 70
     0
 10
0.0
 20
0.0
 11
1.0
 21
1.0
 12
210.0
 22
148.5
 13
0.0
 23
0.0
 14
10.0
 24
10.0
 15
10.0
 25
10.0
 16
0.0
 26
0.0
 36
1.0
 17
0.0
 27
0.0
 37
0.0
 40
341.0
 41
1.24
 42
50.0
 43
0.0
 44
0.0
 50
0.0
 51
0.0
 71
     0
 72
   100
 73
     1
 74
     3
 75
     0
 76
     0
 77
     0
 78
     0
  0
ENDTAB
  0
TABLE
  2
LTYPE
  5
5
330
0
100
AcDbSymbolTable
 70
     1
  0
LTYPE
  5
14
330
5
100
AcDbSymbolTableRecord
100
AcDbLinetypeTableRecord
  2
BYBLOCK
 70
     0
  3

 72
    65
 73
     0
 40
0.0
  0
LTYPE
  5
15
330
5
100
AcDbSymbolTableRecord
100
AcDbLinetypeTableRecord
  2
BYLAYER
 70
     0
  3

 72
    65
 73
     0
 40
0.0
  0
LTYPE
  5
16
330
5
100
AcDbSymbolTableRecord
100
AcDbLinetypeTableRecord
  2
CONTINUOUS
 70
     0
  3
Solid line
 72
    65
 73
     0
 40
0.0
  0
ENDTAB
  0
TABLE
  2
LAYER
  5
2
100
AcDbSymbolTable
 70
5
  0
LAYER
  5
50
100
AcDbSymbolTableRecord
100
AcDbLayerTableRecord
  2
0
 70
0
  6
CONTINUOUS
  0
LAYER
  5
51
100
AcDbSymbolTableRecord
100
AcDbLayerTableRecord
  2
OUTER_PROFILES
 70
0
  6
CONTINUOUS
  0
LAYER
  5
52
100
AcDbSymbolTableRecord
100
AcDbLayerTableRecord
  2
INTERIOR_PROFILES
 70
0
  6
CONTINUOUS
  0
LAYER
  5
53
100
AcDbSymbolTableRecord
100
AcDbLayerTableRecord
  2
BEND
 70
0
  6
CONTINUOUS
  0
LAYER
  5
54
100
AcDbSymbolTableRecord
100
AcDbLayerTableRecord
  2
BEND_EXTENT
 70
0
  6
CONTINUOUS
  0
ENDTAB
  0
TABLE
  2
STYLE
  5
3
330
0
100
AcDbSymbolTable
 70
     1
  0
STYLE
  5
11
330
3
100
AcDbSymbolTableRecord
100
AcDbTextStyleTableRecord
  2
STANDARD
 70
     0
 40
0.0
 41
1.0
 50
0.0
 71
     0
 42
2.5
  3
txt
  4

  0
ENDTAB
  0
TABLE
  2
VIEW
  5
6
330
0
100
AcDbSymbolTable
 70
     0
  0
ENDTAB
  0
TABLE
  2
UCS
  5
7
330
0
100
AcDbSymbolTable
 70
     0
  0
ENDTAB
  0
TABLE
  2
APPID
  5
9
330
0
100
AcDbSymbolTable
 70
     2
  0
APPID
  5
12
330
9
100
AcDbSymbolTableRecord
100
AcDbRegAppTableRecord
  2
ACAD
 70
     0
  0
ENDTAB
  0
TABLE
  2
DIMSTYLE
  5
A
330
0
100
AcDbSymbolTable
 70
     1
  0
DIMSTYLE
105
27
330
A
100
AcDbSymbolTableRecord
100
AcDbDimStyleTableRecord
  2
ISO-25
 70
     0
  3

  4

  5

  6

  7

 40
1.0
 41
2.5
 42
0.625
 43
3.75
 44
1.25
 45
0.0
 46
0.0
 47
0.0
 48
0.0
140
2.5
141
2.5
142
0.0
143
0.03937007874016
144
1.0
145
0.0
146
1.0
147
0.625
 71
     0
 72
     0
 73
     0
 74
     0
 75
     0
 76
     0
 77
     1
 78
     8
170
     0
171
     3
172
     1
173
     0
174
     0
175
     0
176
     0
177
     0
178
     0
270
     2
271
     2
272
     2
273
     2
274
     3
340
11
275
     0
280
     0
281
     0
282
     0
283
     0
284
     8
285
     0
286
     0
287
     3
288
     0
  0
ENDTAB
  0
TABLE
  2
BLOCK_RECORD
  5
1
330
0
100
AcDbSymbolTable
 70
     1
  0
BLOCK_RECORD
  5
1F
330
1
100
AcDbSymbolTableRecord
100
AcDbBlockTableRecord
  2
*MODEL_SPACE
  0
BLOCK_RECORD
  5
1B
330
1
100
AcDbSymbolTableRecord
100
AcDbBlockTableRecord
  2
*PAPER_SPACE
  0
ENDTAB
  0
ENDSEC
  0
SECTION
  2
BLOCKS
  0
BLOCK
  5
20
330
1F
100
AcDbEntity
  8
0
100
AcDbBlockBegin
  2
*MODEL_SPACE
 70
     0
 10
0.0
 20
0.0
 30
0.0
  3
*MODEL_SPACE
  1

  0
ENDBLK
  5
21
330
1F
100
AcDbEntity
  8
0
100
AcDbBlockEnd
  0
BLOCK
  5
1C
330
1B
100
AcDbEntity
 67
     1
  8
0
100
AcDbBlockBegin
  2
*PAPER_SPACE
  1

  0
ENDBLK
  5
1D
330
1B
100
AcDbEntity
 67
     1
  8
0
100
AcDbBlockEnd
  0
ENDSEC
  0
SECTION
  2
ENTITIES
  0
LWPOLYLINE
  5
100
100
AcDbEntity
  8
OUTER_PROFILES
 62
7
100
AcDbPolyline
 90
58
 70
1
 10
325.055759
 20
323.043549
 30
0.0
 10
325.055759
 20
388.759479
 30
0.0
 10
230.375756
 20
388.759479
 30
0.0
 10
230.375756
 20
263.687619
 30
0.0
 10
228.867793
 20
263.687619
 30
0.0
 10
228.867793
 20
311.435585
 30
0.0
 10
174.387790
 20
311.435585
 30
0.0
 10
174.387790
 20
258.587620
 30
0.0
 10
159.753898
 20
258.587620
 30
0.0
 10
159.753898
 20
300.335586
 30
0.0
 10
66.873898
 20
300.335586
 30
0.0
 10
66.873898
 20
258.587620
 30
0.0
 10
65.365932
 20
258.587620
 30
0.0
 10
65.365932
 20
260.347620
 30
0.0
 10
22.775925
 20
260.347620
 30
0.0
 10
22.775925
 20
148.367619
 30
0.0
 10
65.365932
 20
148.367619
 30
0.0
 10
65.365932
 20
150.127627
 30
0.0
 10
66.873898
 20
150.127627
 30
0.0
 10
66.873898
 20
109.979646
 30
0.0
 10
159.753898
 20
109.979646
 30
0.0
 10
159.753898
 20
150.127627
 30
0.0
 10
174.387790
 20
150.127627
 30
0.0
 10
174.387790
 20
97.979655
 30
0.0
 10
228.867793
 20
97.979655
 30
0.0
 10
228.867793
 20
145.727633
 30
0.0
 10
230.375756
 20
145.727633
 30
0.0
 10
230.375756
 20
87.779650
 30
0.0
 10
230.575755
 20
87.779650
 30
0.0
 10
230.575755
 20
20.555764
 30
0.0
 10
325.055759
 20
20.555764
 30
0.0
 10
325.055759
 20
87.779650
 30
0.0
 10
326.855746
 20
87.779650
 30
0.0
 10
326.855746
 20
145.727633
 30
0.0
 10
328.363712
 20
145.727633
 30
0.0
 10
328.363712
 20
97.979655
 30
0.0
 10
383.043721
 20
97.979655
 30
0.0
 10
383.043721
 20
145.727633
 30
0.0
 10
386.351674
 20
145.727633
 30
0.0
 10
386.351674
 20
142.207616
 30
0.0
 10
544.279640
 20
142.207616
 30
0.0
 10
544.279640
 20
174.707620
 30
0.0
 10
540.589655
 20
174.707620
 30
0.0
 10
540.589655
 20
176.307622
 30
0.0
 10
556.497622
 20
176.307622
 30
0.0
 10
556.497622
 20
233.107620
 30
0.0
 10
540.589655
 20
233.107620
 30
0.0
 10
540.589655
 20
234.707619
 30
0.0
 10
544.279640
 20
234.707619
 30
0.0
 10
544.279640
 20
267.207620
 30
0.0
 10
386.351674
 20
267.207620
 30
0.0
 10
386.351674
 20
263.687619
 30
0.0
 10
382.843722
 20
263.687619
 30
0.0
 10
382.843722
 20
311.435585
 30
0.0
 10
328.363712
 20
311.435585
 30
0.0
 10
328.363712
 20
263.687619
 30
0.0
 10
326.855746
 20
263.687619
 30
0.0
 10
326.855746
 20
323.043549
 30
0.0
  0
LWPOLYLINE
  5
101
100
AcDbEntity
  8
BEND
 62
7
100
AcDbPolyline
 90
2
 70
0
 10
66.119915
 20
258.587620
 30
0.0
 10
66.119915
 20
150.127627
 30
0.0
  0
LWPOLYLINE
  5
102
100
AcDbEntity
  8
BEND
 62
7
100
AcDbPolyline
 90
2
 70
0
 10
159.753898
 20
259.341603
 30
0.0
 10
66.873898
 20
259.341603
 30
0.0
  0
LWPOLYLINE
  5
103
100
AcDbEntity
  8
BEND
 62
7
100
AcDbPolyline
 90
2
 70
0
 10
66.873898
 20
149.373644
 30
0.0
 10
159.753898
 20
149.373644
 30
0.0
  0
LWPOLYLINE
  5
104
100
AcDbEntity
  8
BEND
 62
7
100
AcDbPolyline
 90
2
 70
0
 10
325.055759
 20
29.549745
 30
0.0
 10
230.575755
 20
29.549745
 30
0.0
  0
LWPOLYLINE
  5
105
100
AcDbEntity
  8
BEND
 62
7
100
AcDbPolyline
 90
2
 70
0
 10
541.503632
 20
176.307622
 30
0.0
 10
541.503632
 20
233.107620
 30
0.0
  0
LWPOLYLINE
  5
106
100
AcDbEntity
  8
BEND
 62
7
100
AcDbPolyline
 90
2
 70
0
 10
160.507881
 20
150.127627
 30
0.0
 10
160.507881
 20
258.587620
 30
0.0
  0
LWPOLYLINE
  5
107
100
AcDbEntity
  8
BEND
 62
7
100
AcDbPolyline
 90
2
 70
0
 10
230.375756
 20
379.765495
 30
0.0
 10
325.055759
 20
379.765495
 30
0.0
  0
LWPOLYLINE
  5
108
100
AcDbEntity
  8
BEND
 62
7
100
AcDbPolyline
 90
2
 70
0
 10
230.575755
 20
84.037700
 30
0.0
 10
325.055759
 20
84.037700
 30
0.0
  0
LWPOLYLINE
  5
109
100
AcDbEntity
  8
BEND
 62
7
100
AcDbPolyline
 90
2
 70
0
 10
485.285653
 20
142.207616
 30
0.0
 10
485.285653
 20
267.207620
 30
0.0
  0
LWPOLYLINE
  5
10a
100
AcDbEntity
  8
BEND
 62
7
100
AcDbPolyline
 90
2
 70
0
 10
172.095845
 20
258.587620
 30
0.0
 10
172.095845
 20
150.127627
 30
0.0
  0
LWPOLYLINE
  5
10b
100
AcDbEntity
  8
BEND
 62
7
100
AcDbPolyline
 90
2
 70
0
 10
325.055759
 20
325.377531
 30
0.0
 10
230.375756
 20
325.377531
 30
0.0
  0
LWPOLYLINE
  5
10c
100
AcDbEntity
  8
BEND
 62
7
100
AcDbPolyline
 90
2
 70
0
 10
230.575755
 20
87.025666
 30
0.0
 10
325.055759
 20
87.025666
 30
0.0
  0
LWPOLYLINE
  5
10d
100
AcDbEntity
  8
BEND
 62
7
100
AcDbPolyline
 90
2
 70
0
 10
382.843723
 20
264.441603
 30
0.0
 10
328.363712
 20
264.441603
 30
0.0
  0
LWPOLYLINE
  5
10e
100
AcDbEntity
  8
BEND
 62
7
100
AcDbPolyline
 90
2
 70
0
 10
385.597691
 20
145.727633
 30
0.0
 10
385.597691
 20
263.687619
 30
0.0
  0
LWPOLYLINE
  5
10f
100
AcDbEntity
  8
BEND
 62
7
100
AcDbPolyline
 90
2
 70
0
 10
328.363712
 20
144.973650
 30
0.0
 10
383.043721
 20
144.973650
 30
0.0
  0
LWPOLYLINE
  5
110
100
AcDbEntity
  8
BEND
 62
7
100
AcDbPolyline
 90
2
 70
0
 10
228.867793
 20
264.441603
 30
0.0
 10
174.387790
 20
264.441603
 30
0.0
  0
LWPOLYLINE
  5
111
100
AcDbEntity
  8
BEND
 62
7
100
AcDbPolyline
 90
2
 70
0
 10
173.633810
 20
258.587620
 30
0.0
 10
173.633810
 20
150.127627
 30
0.0
  0
LWPOLYLINE
  5
112
100
AcDbEntity
  8
BEND
 62
7
100
AcDbPolyline
 90
2
 70
0
 10
174.387790
 20
144.973650
 30
0.0
 10
228.867793
 20
144.973650
 30
0.0
  0
LWPOLYLINE
  5
113
100
AcDbEntity
  8
BEND
 62
7
100
AcDbPolyline
 90
2
 70
0
 10
326.855746
 20
322.289566
 30
0.0
 10
230.375756
 20
322.289566
 30
0.0
  0
LWPOLYLINE
  5
114
100
AcDbEntity
  8
BEND
 62
7
100
AcDbPolyline
 90
2
 70
0
 10
229.621773
 20
263.687619
 30
0.0
 10
229.621773
 20
145.727633
 30
0.0
  0
LWPOLYLINE
  5
115
100
AcDbEntity
  8
BEND
 62
7
100
AcDbPolyline
 90
2
 70
0
 10
327.609729
 20
145.727633
 30
0.0
 10
327.609729
 20
263.687619
 30
0.0
  0
LWPOLYLINE
  5
116
100
AcDbEntity
  8
BEND
 62
7
100
AcDbPolyline
 90
2
 70
0
 10
230.375756
 20
143.213641
 30
0.0
 10
326.855746
 20
143.213641
 30
0.0
  0
LWPOLYLINE
  5
117
100
AcDbEntity
  8
BEND
 62
7
100
AcDbPolyline
 90
2
 70
0
 10
326.855746
 20
266.201603
 30
0.0
 10
230.375756
 20
266.201603
 30
0.0
  0
ENDSEC
  0
SECTION
  2
OBJECTS
  0
DICTIONARY
  5
C
330
0
100
AcDbDictionary
  3
ACAD_GROUP
350
D
  3
ACAD_MLINESTYLE
350
17
  0
DICTIONARY
  5
D
330
C
100
AcDbDictionary
  0
DICTIONARY
  5
1A
330
C
100
AcDbDictionary
  0
DICTIONARY
  5
17
330
C
100
AcDbDictionary
  3
STANDARD
350
18
  0
DICTIONARY
  5
19
330
C
100
AcDbDictionary
  0
ENDSEC
  0
EOF
