  0
SECTION
  2
HEADER
  9
$ACADVER
  1
AC1014
  9
$HANDSEED
  5
FFFF
  9
$MEASUREMENT
 70
     1
  0
ENDSEC
  0
SECTION
  2
TABLES
  0
TABLE
  2
VPORT
  5
8
330
0
100
AcDbSymbolTable
 70
     4
  0
VPORT
  5
2E
330
8
100
AcDbSymbolTableRecord
100
AcDbViewportTableRecord
  2
*ACTIVE
 70
     0
 10
0.0
 20
0.0
 11
1.0
 21
1.0
 12
210.0
 22
148.5
 13
0.0
 23
0.0
 14
10.0
 24
10.0
 15
10.0
 25
10.0
 16
0.0
 26
0.0
 36
1.0
 17
0.0
 27
0.0
 37
0.0
 40
341.0
 41
1.24
 42
50.0
 43
0.0
 44
0.0
 50
0.0
 51
0.0
 71
     0
 72
   100
 73
     1
 74
     3
 75
     0
 76
     0
 77
     0
 78
     0
  0
ENDTAB
  0
TABLE
  2
LTYPE
  5
5
330
0
100
AcDbSymbolTable
 70
     1
  0
LTYPE
  5
14
330
5
100
AcDbSymbolTableRecord
100
AcDbLinetypeTableRecord
  2
BYBLOCK
 70
     0
  3

 72
    65
 73
     0
 40
0.0
  0
LTYPE
  5
15
330
5
100
AcDbSymbolTableRecord
100
AcDbLinetypeTableRecord
  2
BYLAYER
 70
     0
  3

 72
    65
 73
     0
 40
0.0
  0
LTYPE
  5
16
330
5
100
AcDbSymbolTableRecord
100
AcDbLinetypeTableRecord
  2
CONTINUOUS
 70
     0
  3
Solid line
 72
    65
 73
     0
 40
0.0
  0
ENDTAB
  0
TABLE
  2
LAYER
  5
2
100
AcDbSymbolTable
 70
5
  0
LAYER
  5
50
100
AcDbSymbolTableRecord
100
AcDbLayerTableRecord
  2
0
 70
0
  6
CONTINUOUS
  0
LAYER
  5
51
100
AcDbSymbolTableRecord
100
AcDbLayerTableRecord
  2
OUTER_PROFILES
 70
0
  6
CONTINUOUS
  0
LAYER
  5
52
100
AcDbSymbolTableRecord
100
AcDbLayerTableRecord
  2
INTERIOR_PROFILES
 70
0
  6
CONTINUOUS
  0
LAYER
  5
53
100
AcDbSymbolTableRecord
100
AcDbLayerTableRecord
  2
BEND
 70
0
  6
CONTINUOUS
  0
LAYER
  5
54
100
AcDbSymbolTableRecord
100
AcDbLayerTableRecord
  2
BEND_EXTENT
 70
0
  6
CONTINUOUS
  0
ENDTAB
  0
TABLE
  2
STYLE
  5
3
330
0
100
AcDbSymbolTable
 70
     1
  0
STYLE
  5
11
330
3
100
AcDbSymbolTableRecord
100
AcDbTextStyleTableRecord
  2
STANDARD
 70
     0
 40
0.0
 41
1.0
 50
0.0
 71
     0
 42
2.5
  3
txt
  4

  0
ENDTAB
  0
TABLE
  2
VIEW
  5
6
330
0
100
AcDbSymbolTable
 70
     0
  0
ENDTAB
  0
TABLE
  2
UCS
  5
7
330
0
100
AcDbSymbolTable
 70
     0
  0
ENDTAB
  0
TABLE
  2
APPID
  5
9
330
0
100
AcDbSymbolTable
 70
     2
  0
APPID
  5
12
330
9
100
AcDbSymbolTableRecord
100
AcDbRegAppTableRecord
  2
ACAD
 70
     0
  0
ENDTAB
  0
TABLE
  2
DIMSTYLE
  5
A
330
0
100
AcDbSymbolTable
 70
     1
  0
DIMSTYLE
105
27
330
A
100
AcDbSymbolTableRecord
100
AcDbDimStyleTableRecord
  2
ISO-25
 70
     0
  3

  4

  5

  6

  7

 40
1.0
 41
2.5
 42
0.625
 43
3.75
 44
1.25
 45
0.0
 46
0.0
 47
0.0
 48
0.0
140
2.5
141
2.5
142
0.0
143
0.03937007874016
144
1.0
145
0.0
146
1.0
147
0.625
 71
     0
 72
     0
 73
     0
 74
     0
 75
     0
 76
     0
 77
     1
 78
     8
170
     0
171
     3
172
     1
173
     0
174
     0
175
     0
176
     0
177
     0
178
     0
270
     2
271
     2
272
     2
273
     2
274
     3
340
11
275
     0
280
     0
281
     0
282
     0
283
     0
284
     8
285
     0
286
     0
287
     3
288
     0
  0
ENDTAB
  0
TABLE
  2
BLOCK_RECORD
  5
1
330
0
100
AcDbSymbolTable
 70
     1
  0
BLOCK_RECORD
  5
1F
330
1
100
AcDbSymbolTableRecord
100
AcDbBlockTableRecord
  2
*MODEL_SPACE
  0
BLOCK_RECORD
  5
1B
330
1
100
AcDbSymbolTableRecord
100
AcDbBlockTableRecord
  2
*PAPER_SPACE
  0
ENDTAB
  0
ENDSEC
  0
SECTION
  2
BLOCKS
  0
BLOCK
  5
20
330
1F
100
AcDbEntity
  8
0
100
AcDbBlockBegin
  2
*MODEL_SPACE
 70
     0
 10
0.0
 20
0.0
 30
0.0
  3
*MODEL_SPACE
  1

  0
ENDBLK
  5
21
330
1F
100
AcDbEntity
  8
0
100
AcDbBlockEnd
  0
BLOCK
  5
1C
330
1B
100
AcDbEntity
 67
     1
  8
0
100
AcDbBlockBegin
  2
*PAPER_SPACE
  1

  0
ENDBLK
  5
1D
330
1B
100
AcDbEntity
 67
     1
  8
0
100
AcDbBlockEnd
  0
ENDSEC
  0
SECTION
  2
ENTITIES
  0
SPLINE
  5
100
100
AcDbEntity
  8
INTERIOR_PROFILES
 62
7
100
AcDbSpline
 70
0
 71
3
 72
16
 73
12
 74
10
 40
0.000000
 40
0.000000
 40
0.000000
 40
0.000000
 40
2.793755
 40
5.547472
 40
8.341226
 40
11.134981
 40
13.888698
 40
16.682453
 40
19.476207
 40
22.229924
 40
25.023679
 40
25.023679
 40
25.023679
 40
25.023679
 10
98.313886
 20
225.380953
 30
0.0
 10
98.219237
 20
226.317071
 30
0.0
 10
98.031297
 20
228.175891
 30
0.0
 10
96.559478
 20
230.633272
 30
0.0
 10
94.402837
 20
232.460516
 30
0.0
 10
91.730928
 20
233.429725
 30
0.0
 10
88.896854
 20
233.429725
 30
0.0
 10
86.224945
 20
232.460516
 30
0.0
 10
84.068304
 20
230.633272
 30
0.0
 10
82.596485
 20
228.175891
 30
0.0
 10
82.408545
 20
226.317071
 30
0.0
 10
82.313896
 20
225.380953
 30
0.0
 11
98.313886
 21
225.380953
 31
0.0
 11
97.829347
 21
228.132369
 31
0.0
 11
96.454318
 21
230.518213
 31
0.0
 11
94.316547
 21
232.316824
 31
0.0
 11
91.690749
 21
233.270896
 31
0.0
 11
88.937033
 21
233.270896
 31
0.0
 11
86.311235
 21
232.316824
 31
0.0
 11
84.173464
 21
230.518213
 31
0.0
 11
82.798435
 21
228.132369
 31
0.0
 11
82.313896
 21
225.380953
 31
0.0
  0
LWPOLYLINE
  5
101
100
AcDbEntity
  8
OUTER_PROFILES
 62
7
100
AcDbPolyline
 90
58
 70
1
 10
325.055759
 20
323.043549
 30
0.0
 10
325.055759
 20
388.759479
 30
0.0
 10
230.375756
 20
388.759479
 30
0.0
 10
230.375756
 20
263.687619
 30
0.0
 10
228.867793
 20
263.687619
 30
0.0
 10
228.867793
 20
311.435585
 30
0.0
 10
174.387790
 20
311.435585
 30
0.0
 10
174.387790
 20
258.587620
 30
0.0
 10
159.753898
 20
258.587620
 30
0.0
 10
159.753898
 20
300.335586
 30
0.0
 10
66.873898
 20
300.335586
 30
0.0
 10
66.873898
 20
258.587620
 30
0.0
 10
65.365932
 20
258.587620
 30
0.0
 10
65.365932
 20
260.347620
 30
0.0
 10
22.775925
 20
260.347620
 30
0.0
 10
22.775925
 20
148.367619
 30
0.0
 10
65.365932
 20
148.367619
 30
0.0
 10
65.365932
 20
150.127627
 30
0.0
 10
66.873898
 20
150.127627
 30
0.0
 10
66.873898
 20
109.979646
 30
0.0
 10
159.753898
 20
109.979646
 30
0.0
 10
159.753898
 20
150.127627
 30
0.0
 10
174.387790
 20
150.127627
 30
0.0
 10
174.387790
 20
97.979655
 30
0.0
 10
228.867793
 20
97.979655
 30
0.0
 10
228.867793
 20
145.727633
 30
0.0
 10
230.375756
 20
145.727633
 30
0.0
 10
230.375756
 20
87.779650
 30
0.0
 10
230.575755
 20
87.779650
 30
0.0
 10
230.575755
 20
20.555764
 30
0.0
 10
325.055759
 20
20.555764
 30
0.0
 10
325.055759
 20
87.779650
 30
0.0
 10
326.855746
 20
87.779650
 30
0.0
 10
326.855746
 20
145.727633
 30
0.0
 10
328.363712
 20
145.727633
 30
0.0
 10
328.363712
 20
97.979655
 30
0.0
 10
383.043721
 20
97.979655
 30
0.0
 10
383.043721
 20
145.727633
 30
0.0
 10
386.351674
 20
145.727633
 30
0.0
 10
386.351674
 20
142.207616
 30
0.0
 10
544.279640
 20
142.207616
 30
0.0
 10
544.279640
 20
174.707620
 30
0.0
 10
540.589655
 20
174.707620
 30
0.0
 10
540.589655
 20
176.307622
 30
0.0
 10
556.497622
 20
176.307622
 30
0.0
 10
556.497622
 20
233.107620
 30
0.0
 10
540.589655
 20
233.107620
 30
0.0
 10
540.589655
 20
234.707619
 30
0.0
 10
544.279640
 20
234.707619
 30
0.0
 10
544.279640
 20
267.207620
 30
0.0
 10
386.351674
 20
267.207620
 30
0.0
 10
386.351674
 20
263.687619
 30
0.0
 10
382.843722
 20
263.687619
 30
0.0
 10
382.843722
 20
311.435585
 30
0.0
 10
328.363712
 20
311.435585
 30
0.0
 10
328.363712
 20
263.687619
 30
0.0
 10
326.855746
 20
263.687619
 30
0.0
 10
326.855746
 20
323.043549
 30
0.0
  0
LWPOLYLINE
  5
102
100
AcDbEntity
  8
INTERIOR_PROFILES
 62
7
100
AcDbPolyline
 90
1
 70
1
 10
98.313886
 20
225.380953
 30
0.0
  0
SPLINE
  5
103
100
AcDbEntity
  8
INTERIOR_PROFILES
 62
7
100
AcDbSpline
 70
0
 71
3
 72
16
 73
12
 74
10
 40
0.000000
 40
0.000000
 40
0.000000
 40
0.000000
 40
2.793805
 40
5.547571
 40
8.341376
 40
11.135181
 40
13.888946
 40
16.682751
 40
19.476557
 40
22.230322
 40
25.024127
 40
25.024127
 40
25.024127
 40
25.024127
 10
82.313896
 20
225.380953
 30
0.0
 10
82.408522
 20
224.444816
 30
0.0
 10
82.596416
 20
222.585958
 30
0.0
 10
84.068217
 20
220.128502
 30
0.0
 10
86.224875
 20
218.301197
 30
0.0
 10
88.896828
 20
217.331953
 30
0.0
 10
91.730954
 20
217.331953
 30
0.0
 10
94.402907
 20
218.301197
 30
0.0
 10
96.559565
 20
220.128502
 30
0.0
 10
98.031366
 20
222.585958
 30
0.0
 10
98.219260
 20
224.444816
 30
0.0
 10
98.313886
 20
225.380953
 30
0.0
 11
82.313896
 21
225.380953
 31
0.0
 11
82.798374
 21
222.629476
 31
0.0
 11
84.173383
 21
220.243564
 31
0.0
 11
86.311169
 21
218.444893
 31
0.0
 11
88.937008
 21
217.490788
 31
0.0
 11
91.690774
 21
217.490788
 31
0.0
 11
94.316613
 21
218.444893
 31
0.0
 11
96.454399
 21
220.243564
 31
0.0
 11
97.829408
 21
222.629476
 31
0.0
 11
98.313886
 21
225.380953
 31
0.0
  0
SPLINE
  5
104
100
AcDbEntity
  8
INTERIOR_PROFILES
 62
7
100
AcDbSpline
 70
0
 71
3
 72
16
 73
12
 74
10
 40
0.000000
 40
0.000000
 40
0.000000
 40
0.000000
 40
2.792170
 40
5.544366
 40
8.336536
 40
11.128706
 40
13.880903
 40
16.673072
 40
19.465242
 40
22.217439
 40
25.009608
 40
25.009608
 40
25.009608
 40
25.009608
 10
144.313897
 20
225.380953
 30
0.0
 10
144.218523
 20
226.316450
 30
0.0
 10
144.029141
 20
228.174050
 30
0.0
 10
142.556752
 20
230.629102
 30
0.0
 10
140.400639
 20
232.454425
 30
0.0
 10
137.730106
 20
233.422537
 30
0.0
 10
134.897688
 20
233.422537
 30
0.0
 10
132.227155
 20
232.454425
 30
0.0
 10
130.071042
 20
230.629102
 30
0.0
 10
128.598652
 20
228.174050
 30
0.0
 10
128.409271
 20
226.316450
 30
0.0
 10
128.313897
 20
225.380953
 30
0.0
 11
144.313897
 21
225.380953
 31
0.0
 11
143.827454
 21
228.130423
 31
0.0
 11
142.451764
 21
230.514132
 31
0.0
 11
140.314491
 21
232.310871
 31
0.0
 11
137.689995
 21
233.263884
 31
0.0
 11
134.937798
 21
233.263884
 31
0.0
 11
132.313303
 21
232.310871
 31
0.0
 11
130.176030
 21
230.514132
 31
0.0
 11
128.800340
 21
228.130423
 31
0.0
 11
128.313897
 21
225.380953
 31
0.0
  0
LWPOLYLINE
  5
105
100
AcDbEntity
  8
INTERIOR_PROFILES
 62
7
100
AcDbPolyline
 90
4
 70
1
 10
90.313891
 20
243.380954
 30
0.0
 10
136.313897
 20
243.380954
 30
0.0
 10
136.313897
 20
240.880954
 30
0.0
 10
90.313891
 20
240.880954
 30
0.0
  0
LWPOLYLINE
  5
106
100
AcDbEntity
  8
INTERIOR_PROFILES
 62
7
100
AcDbPolyline
 90
1
 70
1
 10
144.313897
 20
225.380953
 30
0.0
  0
LWPOLYLINE
  5
107
100
AcDbEntity
  8
INTERIOR_PROFILES
 62
7
100
AcDbPolyline
 90
4
 70
1
 10
136.313897
 20
209.880953
 30
0.0
 10
136.313897
 20
207.380952
 30
0.0
 10
90.313891
 20
207.380952
 30
0.0
 10
90.313891
 20
209.880953
 30
0.0
  0
LWPOLYLINE
  5
108
100
AcDbEntity
  8
INTERIOR_PROFILES
 62
7
100
AcDbPolyline
 90
4
 70
1
 10
147.313899
 20
186.174286
 30
0.0
 10
147.313899
 20
165.174296
 30
0.0
 10
79.313892
 20
165.174296
 30
0.0
 10
79.313892
 20
186.174286
 30
0.0
  0
LWPOLYLINE
  5
109
100
AcDbEntity
  8
INTERIOR_PROFILES
 62
7
100
AcDbPolyline
 90
4
 70
1
 10
542.257615
 20
189.707619
 30
0.0
 10
542.257615
 20
219.707620
 30
0.0
 10
544.257600
 20
219.707620
 30
0.0
 10
544.257600
 20
189.707619
 30
0.0
  0
SPLINE
  5
10a
100
AcDbEntity
  8
INTERIOR_PROFILES
 62
7
100
AcDbSpline
 70
0
 71
3
 72
16
 73
12
 74
10
 40
0.000000
 40
0.000000
 40
0.000000
 40
0.000000
 40
2.791713
 40
5.543472
 40
8.335185
 40
11.126898
 40
13.878657
 40
16.670370
 40
19.462083
 40
22.213842
 40
25.005555
 40
25.005555
 40
25.005555
 40
25.005555
 10
128.313897
 20
225.380953
 30
0.0
 10
128.409479
 20
224.445636
 30
0.0
 10
128.599276
 20
222.588388
 30
0.0
 10
130.071830
 20
220.134006
 30
0.0
 10
132.227790
 20
218.309237
 30
0.0
 10
134.897926
 20
217.341440
 30
0.0
 10
137.729868
 20
217.341440
 30
0.0
 10
140.400003
 20
218.309237
 30
0.0
 10
142.555964
 20
220.134006
 30
0.0
 10
144.028518
 20
222.588388
 30
0.0
 10
144.218314
 20
224.445636
 30
0.0
 10
144.313897
 20
225.380953
 30
0.0
 11
128.313897
 21
225.380953
 31
0.0
 11
128.800888
 21
222.632044
 31
0.0
 11
130.176767
 21
220.248951
 31
0.0
 11
132.313897
 21
218.452750
 31
0.0
 11
134.938017
 21
217.500042
 31
0.0
 11
137.689776
 21
217.500042
 31
0.0
 11
140.313897
 21
218.452750
 31
0.0
 11
142.451027
 21
220.248951
 31
0.0
 11
143.826906
 21
222.632044
 31
0.0
 11
144.313897
 21
225.380953
 31
0.0
  0
LWPOLYLINE
  5
10b
100
AcDbEntity
  8
INTERIOR_PROFILES
 62
7
100
AcDbPolyline
 90
4
 70
1
 10
228.867793
 20
174.507632
 30
0.0
 10
227.147792
 20
174.507632
 30
0.0
 10
227.147792
 20
234.907620
 30
0.0
 10
228.867793
 20
234.907620
 30
0.0
  0
ENDSEC
  0
SECTION
  2
OBJECTS
  0
DICTIONARY
  5
C
330
0
100
AcDbDictionary
  3
ACAD_GROUP
350
D
  3
ACAD_MLINESTYLE
350
17
  0
DICTIONARY
  5
D
330
C
100
AcDbDictionary
  0
DICTIONARY
  5
1A
330
C
100
AcDbDictionary
  0
DICTIONARY
  5
17
330
C
100
AcDbDictionary
  3
STANDARD
350
18
  0
DICTIONARY
  5
19
330
C
100
AcDbDictionary
  0
ENDSEC
  0
EOF
